<svg width="528" height="346" viewBox="0 0 528 346" fill="none" xmlns="http://www.w3.org/2000/svg">
    <path d="M70.0918 64.39H404.002" stroke="#BFEAFF" stroke-width="1.94" stroke-miterlimit="10"/>
    <path d="M383.642 30.66H90.4518C79.2073 30.66 70.0918 39.7755 70.0918 51.02V290.66C70.0918 301.905 79.2073 311.02 90.4518 311.02H383.642C394.886 311.02 404.002 301.905 404.002 290.66V51.02C404.002 39.7755 394.886 30.66 383.642 30.66Z" stroke="#BFEAFF" stroke-width="1.94" stroke-miterlimit="10"/>
    <path d="M103.002 47.87C103.002 48.802 102.726 49.713 102.208 50.4878C101.69 51.2625 100.953 51.8662 100.092 52.2224C99.2309 52.5786 98.2834 52.6713 97.3695 52.4888C96.4555 52.3062 95.6163 51.8566 94.958 51.1969C94.2997 50.5372 93.8519 49.697 93.6713 48.7827C93.4907 47.8684 93.5854 46.9211 93.9434 46.0606C94.3015 45.2002 94.9067 44.4652 95.6826 43.9489C96.4584 43.4326 97.3701 43.158 98.302 43.16C98.9201 43.16 99.5321 43.2819 100.103 43.5187C100.674 43.7555 101.192 44.1026 101.629 44.5401C102.066 44.9776 102.412 45.4969 102.647 46.0683C102.883 46.6397 103.003 47.2519 103.002 47.87V47.87Z" stroke="#BFEAFF" stroke-width="1.94" stroke-miterlimit="10"/>
    <path d="M121.322 47.87C121.322 48.8016 121.046 49.7122 120.529 50.4867C120.011 51.2613 119.275 51.865 118.415 52.2215C117.554 52.578 116.607 52.6712 115.693 52.4895C114.78 52.3078 113.941 51.8592 113.282 51.2005C112.623 50.5418 112.175 49.7025 111.993 48.7889C111.811 47.8752 111.904 46.9282 112.261 46.0676C112.617 45.2069 113.221 44.4713 113.996 43.9538C114.77 43.4362 115.681 43.16 116.612 43.16C117.231 43.16 117.843 43.2818 118.415 43.5185C118.986 43.7552 119.505 44.1022 119.943 44.5395C120.38 44.9769 120.727 45.4961 120.964 46.0676C121.201 46.639 121.322 47.2515 121.322 47.87V47.87Z" stroke="#BFEAFF" stroke-width="1.94" stroke-miterlimit="10"/>
    <path d="M139.612 47.87C139.612 48.802 139.336 49.713 138.818 50.4878C138.3 51.2625 137.564 51.8662 136.703 52.2224C135.841 52.5786 134.894 52.6713 133.98 52.4888C133.066 52.3062 132.227 51.8566 131.568 51.1969C130.91 50.5372 130.462 49.697 130.282 48.7827C130.101 47.8684 130.196 46.9211 130.554 46.0606C130.912 45.2002 131.517 44.4652 132.293 43.9489C133.069 43.4326 133.98 43.158 134.912 43.16C135.53 43.16 136.142 43.2819 136.713 43.5187C137.284 43.7555 137.803 44.1026 138.239 44.5401C138.676 44.9776 139.022 45.4969 139.257 46.0683C139.493 46.6397 139.614 47.2519 139.612 47.87V47.87Z" stroke="#BFEAFF" stroke-width="1.94" stroke-miterlimit="10"/>
    <path d="M270.882 296.84C220.582 299.9 61.232 284.84 73.702 305.41C75.702 308.47 86.012 312.79 77.262 315.65C70.922 317.79 59.262 319.05 48.072 319.88C18.752 322.15 7.83197 326.4 15.252 332.48C35.122 348.85 143.252 344.97 200.022 340.11C243.187 336.379 286.576 335.988 329.802 338.94C362.552 341.42 382.972 346.64 421.412 345.12C455.492 343.81 460.642 337.69 450.682 331.99C445.032 328.46 440.972 326.99 452.192 323.57C461.642 320.19 478.272 317.63 479.562 313.67C479.842 309.38 469.472 305.05 449.422 303.43C433.022 302.1 418.152 302.64 401.922 301.82C365.832 299.89 342.632 289.22 297.852 292.89C286.692 293.89 280.402 296.2 268.242 296.89" fill="#E6F6FC"/>
    <path d="M245.002 314.6C273.168 314.6 296.002 312.138 296.002 309.1C296.002 306.062 273.168 303.6 245.002 303.6C216.835 303.6 194.002 306.062 194.002 309.1C194.002 312.138 216.835 314.6 245.002 314.6Z" fill="#C2E7EF"/>
    <path d="M103.002 329.6C125.093 329.6 143.002 328.033 143.002 326.1C143.002 324.167 125.093 322.6 103.002 322.6C80.9106 322.6 63.002 324.167 63.002 326.1C63.002 328.033 80.9106 329.6 103.002 329.6Z" fill="#C2E7EF"/>
    <path d="M37.502 334.6C53.7944 334.6 67.002 333.481 67.002 332.1C67.002 330.719 53.7944 329.6 37.502 329.6C21.2096 329.6 8.00195 330.719 8.00195 332.1C8.00195 333.481 21.2096 334.6 37.502 334.6Z" fill="#C2E7EF"/>
    <path d="M443.502 309.6C459.794 309.6 473.002 308.481 473.002 307.1C473.002 305.719 459.794 304.6 443.502 304.6C427.21 304.6 414.002 305.719 414.002 307.1C414.002 308.481 427.21 309.6 443.502 309.6Z" fill="#C2E7EF"/>
    <path d="M497.502 325.6C513.794 325.6 527.002 324.481 527.002 323.1C527.002 321.719 513.794 320.6 497.502 320.6C481.21 320.6 468.002 321.719 468.002 323.1C468.002 324.481 481.21 325.6 497.502 325.6Z" fill="#C2E7EF"/>
    <path d="M492.522 241C491.182 233.1 487.192 226.06 484.522 218.6C481.042 209 482.702 201.28 485.262 191.74C489.102 177.39 489.172 161.31 481.722 148.11C479.722 144.52 476.942 141.39 474.902 137.82C472.642 133.87 471.622 128.74 471.172 124.24C470.732 119.99 471.532 115.67 471.332 111.39C471.16 107.673 470.59 103.985 469.632 100.39C466.972 90.39 459.742 77.39 447.742 77.52C433.572 77.67 429.972 94.72 430.442 105.87C430.762 113.61 432.102 121.82 429.302 129.27C426.302 137.35 418.432 142.2 413.902 149.27C410.587 154.548 408.556 160.529 407.971 166.734C407.385 172.939 408.263 179.195 410.532 185C413.162 191.51 418.872 197.37 419.102 204.66C419.382 213.12 410.102 218.11 405.852 224.42C398.752 235.01 398.372 248.79 403.322 260.33C415.632 286.09 449.602 295.06 473.672 280.62C473.867 280.656 474.068 280.65 474.26 280.604C474.453 280.557 474.634 280.471 474.792 280.35C486.812 271.06 495.142 256.54 492.522 241Z" fill="#8FD8FC"/>
    <path d="M448.562 305.66C448.762 293.227 448.952 280.797 449.132 268.37C441.57 260.044 435.211 250.7 430.242 240.61C429.592 239.29 431.722 238.45 432.372 239.77C436.866 248.869 442.516 257.349 449.182 265C449.329 254.467 449.466 243.933 449.592 233.4C449.489 233.344 449.398 233.27 449.322 233.18C441.556 224.547 434.885 214.988 429.462 204.72C428.772 203.43 430.912 202.59 431.592 203.88C436.567 213.272 442.607 222.06 449.592 230.07C449.712 220.197 449.819 210.327 449.912 200.46C444.789 194.092 440.184 187.324 436.142 180.22C435.422 178.96 437.242 177.56 437.972 178.84C441.541 185.117 445.551 191.132 449.972 196.84C450.059 187.007 450.146 177.177 450.232 167.35C450.089 167.277 449.963 167.175 449.862 167.05C446.402 162.983 443.132 158.76 440.052 154.38C439.212 153.18 441.052 151.8 441.882 153C444.549 156.76 447.339 160.41 450.252 163.95C450.312 157.357 450.366 150.77 450.412 144.19C450.412 142.74 452.692 142.45 452.682 143.92C452.622 153.02 452.552 162.117 452.472 171.21C454.879 166.99 457.426 162.853 460.112 158.8C460.932 157.57 462.742 158.97 461.932 160.19C458.532 165.29 455.366 170.527 452.432 175.9C452.366 183.9 452.289 191.9 452.202 199.9C452.212 199.986 452.212 200.074 452.202 200.16C452.162 204.633 452.116 209.11 452.062 213.59C458.772 206.116 464.61 197.904 469.462 189.11C470.172 187.82 472.252 188.78 471.542 190.11C466.177 199.88 459.624 208.949 452.032 217.11C451.906 228.517 451.766 239.93 451.612 251.35L468.002 233.82C469.002 232.76 470.822 234.14 469.812 235.22C463.752 241.693 457.689 248.167 451.622 254.64C451.396 271.753 451.142 288.867 450.862 305.98C450.802 307.45 448.532 307.12 448.562 305.66Z" fill="#49A6D6"/>
    <path d="M64.6621 284.49C63.7321 278.97 60.9421 274.05 59.0521 268.84C56.6121 262.13 57.7721 256.73 59.5621 250.06C62.2521 240.06 62.3021 228.8 57.0921 219.57C55.6721 217.06 53.7521 214.87 52.3221 212.38C50.8252 209.42 49.9377 206.189 49.7121 202.88C49.4121 199.88 49.9721 196.88 49.8321 193.88C49.7062 191.289 49.3073 188.718 48.6421 186.21C46.7821 179.21 41.7321 170.15 33.3421 170.21C23.4321 170.31 20.9221 182.21 21.2521 190.03C21.4721 195.44 22.4121 201.17 20.4521 206.38C18.3321 212.02 12.8521 215.38 9.69205 220.38C7.383 224.066 5.96954 228.242 5.56493 232.573C5.16031 236.904 5.77579 241.27 7.36205 245.32C9.20205 249.87 13.1921 253.97 13.3621 259.06C13.5621 264.97 7.06205 268.46 4.10205 272.87C-0.897948 280.27 -1.12795 289.87 2.33205 297.97C10.9421 315.97 34.6721 322.24 51.5021 312.15C51.6381 312.174 51.7777 312.169 51.912 312.137C52.0462 312.104 52.1722 312.044 52.2821 311.96C60.6821 305.53 66.4921 295.38 64.6621 284.49Z" fill="#8FD8FC"/>
    <path d="M33.9421 329.71C34.0821 321.043 34.2154 312.357 34.3421 303.65C29.0561 297.833 24.6128 291.302 21.1421 284.25C20.6821 283.32 22.1421 282.74 22.6221 283.66C25.775 290.019 29.7306 295.947 34.3921 301.3C34.4987 293.967 34.5954 286.603 34.6821 279.21C34.61 279.172 34.5456 279.121 34.4921 279.06C29.0677 273.024 24.406 266.344 20.6121 259.17C20.1321 258.26 21.6121 257.68 22.1021 258.58C25.5879 265.145 29.8191 271.285 34.7121 276.88C34.7921 269.993 34.8654 263.097 34.9321 256.19C31.3378 251.73 28.1138 246.985 25.2921 242C24.7921 241.12 26.0621 240.15 26.5621 241C29.0554 245.382 31.8557 249.583 34.9421 253.57L35.1221 233C35.0224 232.952 34.9338 232.884 34.8621 232.8C32.4421 229.96 30.1554 227.027 28.0021 224C27.4121 223.16 28.6821 222.19 29.2821 223C31.1321 225.63 33.0821 228.17 35.1321 230.65C35.1321 226.04 35.2121 221.44 35.2421 216.84C35.2421 215.84 36.8321 215.62 36.8321 216.65L36.6821 235.72C38.3621 232.72 40.1321 229.88 42.0221 227.05C42.5921 226.19 43.8521 227.17 43.2921 228.05C40.9121 231.62 38.7121 235.28 36.6521 239.05C36.6054 244.65 36.5521 250.247 36.4921 255.84C36.5022 255.9 36.5022 255.96 36.4921 256.02C36.4921 259.147 36.4587 262.277 36.3921 265.41C41.0781 260.184 45.1574 254.444 48.5521 248.3C49.0521 247.4 50.5021 248.07 50.0021 248.97C46.2543 255.792 41.6761 262.123 36.3721 267.82C36.2787 275.82 36.1787 283.797 36.0721 291.75L47.5021 279.5C48.1921 278.76 49.5021 279.73 48.7621 280.5L36.0521 294.05C35.8921 306.01 35.7154 317.97 35.5221 329.93C35.5121 331 33.9221 330.73 33.9421 329.71Z" fill="#49A6D6"/>
    <path d="M517.292 292.09C516.722 288.69 515.012 285.67 513.842 282.47C512.352 278.35 513.062 275.04 514.162 270.95C515.812 264.79 515.842 257.89 512.642 252.22C511.772 250.68 510.592 249.34 509.722 247.81C508.803 245.993 508.256 244.011 508.112 241.98C507.932 240.15 508.272 238.3 508.182 236.46C508.109 234.872 507.864 233.296 507.452 231.76C506.312 227.46 503.212 221.89 498.062 221.95C491.982 222.01 490.432 229.33 490.632 234.11C490.772 237.43 491.352 240.96 490.152 244.11C488.842 247.58 485.482 249.66 483.542 252.72C482.124 254.983 481.256 257.546 481.008 260.205C480.759 262.864 481.137 265.544 482.112 268.03C483.242 270.83 485.692 273.34 485.792 276.47C485.912 280.1 481.922 282.24 480.102 284.95C478.652 287.232 477.793 289.839 477.601 292.536C477.409 295.233 477.89 297.935 479.002 300.4C484.292 311.46 498.862 315.3 509.202 309.11C509.371 309.134 509.543 309.091 509.682 308.99C514.842 305 518.422 298.77 517.292 292.09Z" fill="#BFEAFF"/>
    <path d="M498.432 319.85C498.519 314.517 498.599 309.183 498.672 303.85C495.423 300.271 492.69 296.256 490.552 291.92C490.272 291.36 491.192 291 491.472 291.56C493.405 295.473 495.835 299.12 498.702 302.41C498.772 297.88 498.822 293.35 498.882 288.83L498.762 288.73C495.427 285.02 492.562 280.912 490.232 276.5C489.932 275.95 490.852 275.59 491.142 276.14C493.289 280.175 495.893 283.95 498.902 287.39C498.956 283.15 498.999 278.91 499.032 274.67C496.834 271.932 494.857 269.023 493.122 265.97C492.812 265.43 493.592 264.83 493.902 265.38C495.437 268.073 497.158 270.656 499.052 273.11C499.092 268.877 499.129 264.65 499.162 260.43C499.106 260.399 499.055 260.358 499.012 260.31C497.522 258.55 496.112 256.74 494.792 254.86C494.432 254.34 495.212 253.75 495.582 254.27C496.712 255.88 497.922 257.45 499.172 258.97C499.172 256.143 499.196 253.313 499.242 250.48C499.242 249.85 500.242 249.73 500.242 250.36L500.152 262.09C501.179 260.283 502.272 258.507 503.432 256.76C503.782 256.23 504.562 256.83 504.212 257.36C502.752 259.553 501.392 261.803 500.132 264.11C500.132 267.55 500.099 270.99 500.032 274.43C500.042 274.466 500.042 274.504 500.032 274.54L499.972 280.31C502.854 277.097 505.364 273.568 507.452 269.79C507.752 269.24 508.652 269.65 508.342 270.21C506.036 274.403 503.222 278.296 499.962 281.8L499.782 296.51C502.116 294.01 504.449 291.513 506.782 289.02C507.212 288.56 508.002 289.16 507.562 289.62L499.752 297.96C499.652 305.293 499.542 312.65 499.422 320.03C499.392 320.62 498.422 320.48 498.432 319.85Z" fill="#49A6D6"/>
    <path d="M431.002 223.8L421.202 195L404.832 200.58L371.402 102.48L334.122 115.18L334.242 115.51L322.242 167.4L305.142 241.23L315.142 263.23L350.332 251.23L363.142 246.86L377.412 242L389.002 276.25L426.282 263.55L414.632 229.38L431.002 223.8ZM363.232 214.8L354.772 217.68L338.582 223.2L349.632 168.33L350.632 163.77L367.512 213.32L363.232 214.8Z" fill="#FFC55F"/>
    <g style="mix-blend-mode:overlay" opacity="0.25">
        <path d="M414.632 229.38L426.272 263.56L402.532 253.4L364.592 116.68L350.672 163.77L344.232 190.44L322.212 167.44L334.242 115.55L334.122 115.22L371.402 102.52L404.832 200.62L421.202 195.04L431.002 223.8L414.632 229.38Z" fill="black"/>
    </g>
    <path d="M290.132 228.56L284.522 199.87C280.362 178.65 272.362 163.17 260.522 153.43C248.682 143.69 234.016 140.53 216.522 143.95C199.062 147.37 186.679 155.79 179.372 169.21C172.066 182.63 170.499 199.983 174.672 221.27L180.312 250.07C184.452 271.21 192.452 286.65 204.312 296.39C209.173 300.421 214.804 303.419 220.862 305.2C229.102 307.62 238.289 307.837 248.422 305.85C253.367 304.922 258.188 303.429 262.792 301.4C272.472 297.222 280.46 289.901 285.462 280.62C292.742 267.2 294.299 249.847 290.132 228.56ZM255.072 267.06C253.152 272.94 249.089 276.487 242.882 277.7C236.449 278.96 231.226 277.157 227.212 272.29C224.466 268.957 222.132 264.03 220.212 257.51C219.312 254.477 218.499 251.1 217.772 247.38L209.882 207.11C208.029 196.53 208.029 188.363 209.882 182.61C211.736 176.857 215.776 173.353 222.002 172.1C226.796 171.16 230.926 171.967 234.392 174.52C235.63 175.442 236.742 176.521 237.702 177.73C241.762 182.743 244.899 190.917 247.112 202.25L254.742 241.25C256.916 252.57 257.026 261.173 255.072 267.06Z" fill="#FFC55F"/>
    <path d="M158.862 114.61L121.152 108.14L121.092 108.47L37.8216 202.23L36.1016 225.67L48.0016 227.72L68.6716 231.28L96.4616 236L99.1016 236.46L97.1016 248.02L96.1716 253.36L93.1716 271.03L117.722 275.25L130.882 277.51L136.812 243L153.382 245.85L158.382 216.75L141.822 213.91L158.862 114.61ZM111.782 162.66L104.092 207.4L94.9016 205.81L74.7816 202.36L85.9216 189.06L88.4716 186.06L109.712 160.71L112.712 157.3L111.782 162.66Z" fill="#FFC55F"/>
    <g style="mix-blend-mode:overlay" opacity="0.25">
        <path d="M141.812 213.88L158.382 216.72L153.382 245.82L136.812 242.97L130.872 277.55L117.702 275.29L140.842 130.92L158.862 114.61L141.812 213.88Z" fill="black"/>
    </g>
    <path d="M207.583 214.812L192.444 199.673L132.871 259.247L148.01 274.386L207.583 214.812Z" fill="#1E5B89"/>
    <path opacity="0.2" d="M204.942 215.57C200.738 211.365 197.125 206.608 194.202 201.43L192.442 199.67L181.542 210.56C184.997 216.394 189.174 221.769 193.972 226.56C194.282 226.87 194.612 227.16 194.972 227.47L205.972 216.47C205.582 216.18 205.252 215.89 204.942 215.57Z" fill="black"/>
    <path d="M180.95 235.881L171.369 226.3C167.186 222.117 160.405 222.117 156.223 226.3L87.7112 294.811C83.5287 298.994 83.5287 305.775 87.7112 309.957L97.2925 319.539C101.475 323.721 108.256 323.721 112.439 319.539L180.95 251.027C185.133 246.845 185.133 240.063 180.95 235.881Z" fill="#F95B03"/>
    <path opacity="0.2" d="M181.212 236.12L173.482 228.39C175.422 230.334 176.511 232.968 176.511 235.715C176.511 238.462 175.422 241.096 173.482 243.04L104.482 312.04C103.521 313.003 102.38 313.767 101.124 314.288C99.8682 314.809 98.5217 315.077 97.1618 315.077C95.8019 315.077 94.4554 314.809 93.1993 314.288C91.9432 313.767 90.8023 313.003 89.8418 312.04L97.5618 319.77C98.5231 320.733 99.6649 321.497 100.922 322.018C102.179 322.54 103.526 322.808 104.887 322.808C106.248 322.808 107.595 322.54 108.852 322.018C110.109 321.497 111.25 320.733 112.212 319.77L181.212 250.77C183.152 248.826 184.241 246.192 184.241 243.445C184.241 240.698 183.152 238.064 181.212 236.12Z" fill="white"/>
    <path d="M307.242 100C295.904 88.6621 281.459 80.9409 265.733 77.8128C250.007 74.6846 233.706 76.2901 218.893 82.4261C204.079 88.562 191.418 98.953 182.509 112.285C173.601 125.617 168.847 141.291 168.847 157.325C168.847 173.359 173.601 189.033 182.509 202.365C191.418 215.697 204.079 226.088 218.893 232.224C233.706 238.36 250.007 239.965 265.733 236.837C281.459 233.709 295.904 225.988 307.242 214.65C322.445 199.446 330.987 178.826 330.987 157.325C330.987 135.824 322.445 115.204 307.242 100ZM203.562 203.69C194.392 194.522 188.148 182.84 185.617 170.122C183.087 157.405 184.385 144.222 189.347 132.242C194.308 120.262 202.711 110.023 213.493 102.819C224.274 95.6144 236.95 91.7692 249.917 91.7692C262.884 91.7692 275.56 95.6144 286.341 102.819C297.122 110.023 305.525 120.262 310.487 132.242C315.449 144.222 316.747 157.405 314.217 170.122C311.686 182.84 305.442 194.522 296.272 203.69C283.977 215.983 267.303 222.889 249.917 222.889C232.531 222.889 215.857 215.983 203.562 203.69Z" fill="#1E5B89"/>
    <path opacity="0.2" d="M299.822 107.43C289.952 97.5585 277.376 90.8357 263.684 88.1117C249.993 85.3878 235.801 86.7851 222.904 92.1269C210.007 97.4687 198.983 106.515 191.227 118.122C183.472 129.729 179.332 143.375 179.332 157.335C179.332 171.295 183.472 184.941 191.227 196.548C198.983 208.155 210.007 217.201 222.904 222.543C235.801 227.885 249.993 229.282 263.684 226.558C277.376 223.834 289.952 217.112 299.822 207.24C306.378 200.687 311.578 192.908 315.126 184.345C318.674 175.782 320.5 166.604 320.5 157.335C320.5 148.066 318.674 138.888 315.126 130.325C311.578 121.762 306.378 113.983 299.822 107.43ZM203.562 203.69C194.393 194.522 188.148 182.84 185.618 170.122C183.087 157.405 184.385 144.222 189.347 132.242C194.309 120.262 202.712 110.023 213.493 102.819C224.275 95.6144 236.95 91.7692 249.917 91.7692C262.884 91.7692 275.56 95.6144 286.341 102.819C297.123 110.023 305.526 120.262 310.488 132.242C315.449 144.222 316.747 157.405 314.217 170.122C311.687 182.84 305.442 194.522 296.272 203.69C283.978 215.983 267.303 222.889 249.917 222.889C232.531 222.889 215.857 215.983 203.562 203.69Z" fill="black"/>
    <path opacity="0.28" d="M249.922 222.88C286.124 222.88 315.472 193.532 315.472 157.33C315.472 121.128 286.124 91.78 249.922 91.78C213.72 91.78 184.372 121.128 184.372 157.33C184.372 193.532 213.72 222.88 249.922 222.88Z" fill="#8FD8FC"/>
    <g opacity="0.3">
        <path opacity="0.3" d="M208.902 106.21C198.77 114.337 191.275 125.285 187.362 137.67L269.572 219.88C281.947 215.968 292.884 208.476 301.002 198.35L208.902 106.21Z" fill="white"/>
        <path opacity="0.3" d="M235.003 93.5C228.355 95.039 221.99 97.6138 216.143 101.13L306.143 191.13C309.663 185.283 312.241 178.918 313.783 172.27L235.003 93.5Z" fill="white"/>
    </g>
    <path d="M98.8425 306C98.4025 303.41 97.0925 301.1 96.2125 298.65C95.0625 295.5 95.6125 292.97 96.4525 289.84C97.7125 285.14 97.7325 279.84 95.2925 275.53C94.6225 274.36 93.7225 273.33 93.0525 272.16C92.3527 270.773 91.9379 269.26 91.8325 267.71C91.6825 266.31 91.9525 264.9 91.8325 263.49C91.7763 262.277 91.5885 261.073 91.2725 259.9C90.4025 256.61 88.0325 252.36 84.0925 252.4C79.4525 252.4 78.2725 258.04 78.4225 261.7C78.5325 264.23 78.9725 266.92 78.0525 269.37C77.0525 272.02 74.4825 273.61 73.0525 275.94C71.97 277.67 71.3067 279.628 71.1158 281.66C70.9248 283.691 71.2113 285.739 71.9525 287.64C72.8225 289.78 74.6925 291.7 74.7725 294.09C74.8625 296.87 71.7725 298.5 70.4225 300.57C69.3224 302.312 68.6708 304.3 68.526 306.356C68.3812 308.411 68.7476 310.471 69.5925 312.35C73.5925 320.8 84.7725 323.74 92.6625 319.01C92.7271 319.02 92.793 319.018 92.8566 319.002C92.9201 318.987 92.9799 318.959 93.0325 318.92C97.0025 315.87 99.7025 311.11 98.8425 306Z" fill="#BFEAFF"/>
    <path d="M84.4224 327.22C84.489 323.127 84.5524 319.043 84.6124 314.97C82.1303 312.234 80.0434 309.164 78.4124 305.85C78.2024 305.42 78.9024 305.14 79.1124 305.58C80.5917 308.566 82.4504 311.349 84.6424 313.86C84.6957 310.407 84.739 306.95 84.7724 303.49C84.7413 303.472 84.7141 303.448 84.6924 303.42C82.1408 300.583 79.9477 297.442 78.1624 294.07C77.9424 293.64 78.6424 293.37 78.8624 293.79C80.4989 296.877 82.4889 299.763 84.7924 302.39C84.7924 299.15 84.8624 295.91 84.8924 292.67C83.2082 290.57 81.6935 288.34 80.3624 286C80.1224 285.59 80.7224 285.13 80.9624 285.55C82.1299 287.608 83.4432 289.58 84.8924 291.45C84.8924 288.22 84.9524 285 84.9824 281.77C84.9376 281.743 84.8972 281.709 84.8624 281.67C83.7224 280.33 82.6524 278.95 81.6424 277.51C81.3624 277.11 81.9624 276.66 82.2424 277.06C83.1157 278.293 84.0324 279.49 84.9924 280.65C84.9924 278.49 84.9924 276.33 85.0424 274.16C85.0424 273.68 85.7924 273.59 85.7924 274.07C85.7924 277.07 85.7424 280.07 85.7224 283.07C86.5124 281.68 87.3424 280.32 88.2324 278.99C88.4924 278.59 89.0924 279.05 88.8224 279.45C87.7157 281.123 86.6757 282.843 85.7024 284.61C85.7024 287.24 85.7024 289.87 85.6324 292.5V292.58C85.6324 294.05 85.6324 295.52 85.6324 296.99C87.8367 294.549 89.7558 291.865 91.3524 288.99C91.5824 288.57 92.2624 288.88 92.0324 289.31C90.2692 292.513 88.1162 295.486 85.6224 298.16C85.5824 301.913 85.5357 305.663 85.4824 309.41L90.8524 303.68C91.1724 303.33 91.7724 303.79 91.4424 304.14L85.4424 310.52C85.3624 316.14 85.279 321.76 85.1924 327.38C85.1624 327.8 84.4224 327.69 84.4224 327.22Z" fill="#49A6D6"/>
    <path d="M340.812 290.66H321.162C320.934 290.66 320.715 290.751 320.554 290.912C320.392 291.073 320.302 291.292 320.302 291.52C320.302 291.748 320.392 291.967 320.554 292.128C320.715 292.289 320.934 292.38 321.162 292.38H340.812C341.04 292.38 341.259 292.289 341.42 292.128C341.581 291.967 341.672 291.748 341.672 291.52C341.672 291.292 341.581 291.073 341.42 290.912C341.259 290.751 341.04 290.66 340.812 290.66Z" fill="#49A6D6"/>
    <path d="M314.902 290.66H311.072C310.844 290.66 310.625 290.751 310.464 290.912C310.303 291.073 310.212 291.292 310.212 291.52C310.212 291.748 310.303 291.967 310.464 292.128C310.625 292.289 310.844 292.38 311.072 292.38H314.902C315.13 292.38 315.349 292.289 315.51 292.128C315.671 291.967 315.762 291.748 315.762 291.52C315.762 291.292 315.671 291.073 315.51 290.912C315.349 290.751 315.13 290.66 314.902 290.66Z" fill="#49A6D6"/>
    <path d="M331.572 297.51C331.572 297.736 331.483 297.954 331.324 298.115C331.164 298.276 330.948 298.367 330.722 298.37H328.262C328.034 298.37 327.815 298.279 327.654 298.118C327.493 297.957 327.402 297.738 327.402 297.51C327.402 297.282 327.493 297.063 327.654 296.902C327.815 296.741 328.034 296.65 328.262 296.65H330.722C330.948 296.653 331.164 296.744 331.324 296.905C331.483 297.066 331.572 297.284 331.572 297.51ZM324.822 297.51C324.819 297.737 324.728 297.955 324.567 298.115C324.406 298.276 324.189 298.367 323.962 298.37H319.662C319.434 298.37 319.215 298.279 319.054 298.118C318.893 297.957 318.802 297.738 318.802 297.51C318.802 297.282 318.893 297.063 319.054 296.902C319.215 296.741 319.434 296.65 319.662 296.65H324.002C324.222 296.663 324.429 296.759 324.582 296.918C324.734 297.078 324.82 297.289 324.822 297.51ZM316.222 297.51C316.222 297.738 316.131 297.957 315.97 298.118C315.809 298.279 315.59 298.37 315.362 298.37H311.072C310.844 298.37 310.625 298.279 310.464 298.118C310.303 297.957 310.212 297.738 310.212 297.51C310.212 297.282 310.303 297.063 310.464 296.902C310.625 296.741 310.844 296.65 311.072 296.65H315.362C315.475 296.65 315.587 296.672 315.691 296.715C315.795 296.759 315.89 296.822 315.97 296.902C316.05 296.982 316.113 297.077 316.156 297.181C316.2 297.285 316.222 297.397 316.222 297.51Z" fill="#49A6D6"/>
    <path d="M392.472 331.4C392.246 331.4 392.029 331.489 391.868 331.648C391.707 331.807 391.615 332.024 391.612 332.25V334.25C391.612 334.478 391.703 334.697 391.864 334.858C392.025 335.019 392.244 335.11 392.472 335.11C392.7 335.11 392.919 335.019 393.08 334.858C393.242 334.697 393.332 334.478 393.332 334.25V332.25C393.332 332.138 393.31 332.026 393.267 331.922C393.223 331.819 393.16 331.724 393.08 331.645C393 331.566 392.905 331.504 392.801 331.462C392.696 331.42 392.585 331.399 392.472 331.4Z" fill="#49A6D6"/>
    <path d="M390.222 329.4H388.222C388.102 329.387 387.981 329.399 387.866 329.436C387.751 329.473 387.645 329.534 387.555 329.615C387.465 329.696 387.393 329.794 387.344 329.905C387.295 330.015 387.27 330.134 387.27 330.255C387.27 330.376 387.295 330.495 387.344 330.605C387.393 330.716 387.465 330.814 387.555 330.895C387.645 330.976 387.751 331.037 387.866 331.074C387.981 331.111 388.102 331.123 388.222 331.11H390.222C390.342 331.123 390.464 331.111 390.579 331.074C390.693 331.037 390.799 330.976 390.889 330.895C390.979 330.814 391.051 330.716 391.1 330.605C391.149 330.495 391.175 330.376 391.175 330.255C391.175 330.134 391.149 330.015 391.1 329.905C391.051 329.794 390.979 329.696 390.889 329.615C390.799 329.534 390.693 329.473 390.579 329.436C390.464 329.399 390.342 329.387 390.222 329.4Z" fill="#49A6D6"/>
    <path d="M392.472 325.26C392.245 325.263 392.028 325.354 391.867 325.515C391.706 325.675 391.615 325.893 391.612 326.12V328.12C391.612 328.348 391.703 328.567 391.864 328.728C392.025 328.889 392.244 328.98 392.472 328.98C392.7 328.98 392.919 328.889 393.08 328.728C393.242 328.567 393.332 328.348 393.332 328.12V326.12C393.332 325.892 393.242 325.673 393.08 325.512C392.919 325.351 392.7 325.26 392.472 325.26Z" fill="#49A6D6"/>
    <path d="M396.722 329.26H394.722C394.494 329.26 394.275 329.351 394.114 329.512C393.953 329.673 393.862 329.892 393.862 330.12C393.862 330.348 393.953 330.567 394.114 330.728C394.275 330.889 394.494 330.98 394.722 330.98H396.722C396.95 330.98 397.169 330.889 397.33 330.728C397.492 330.567 397.582 330.348 397.582 330.12C397.582 329.892 397.492 329.673 397.33 329.512C397.169 329.351 396.95 329.26 396.722 329.26Z" fill="#49A6D6"/>
    <path d="M69.7018 18.13C69.4737 18.13 69.255 18.2206 69.0937 18.3819C68.9324 18.5432 68.8418 18.7619 68.8418 18.99V20.99C68.8418 21.2181 68.9324 21.4368 69.0937 21.5981C69.255 21.7594 69.4737 21.85 69.7018 21.85C69.9299 21.85 70.1486 21.7594 70.3099 21.5981C70.4712 21.4368 70.5618 21.2181 70.5618 20.99V19C70.5645 18.8859 70.5442 18.7723 70.502 18.6662C70.4599 18.5601 70.3968 18.4636 70.3165 18.3824C70.2363 18.3012 70.1405 18.237 70.0349 18.1936C69.9292 18.1503 69.816 18.1286 69.7018 18.13Z" fill="#49A6D6"/>
    <path d="M67.4518 16.13H65.4518C65.2237 16.13 65.005 16.2206 64.8437 16.3819C64.6824 16.5432 64.5918 16.7619 64.5918 16.99C64.5918 17.2181 64.6824 17.4368 64.8437 17.5981C65.005 17.7594 65.2237 17.85 65.4518 17.85H67.4518C67.6799 17.85 67.8986 17.7594 68.0599 17.5981C68.2212 17.4368 68.3118 17.2181 68.3118 16.99C68.3118 16.7619 68.2212 16.5432 68.0599 16.3819C67.8986 16.2206 67.6799 16.13 67.4518 16.13Z" fill="#49A6D6"/>
    <path d="M69.7018 12C69.4737 12 69.255 12.0906 69.0937 12.2519C68.9324 12.4132 68.8418 12.6319 68.8418 12.86V14.86C68.8418 15.0881 68.9324 15.3068 69.0937 15.4681C69.255 15.6294 69.4737 15.72 69.7018 15.72C69.9299 15.72 70.1486 15.6294 70.3099 15.4681C70.4712 15.3068 70.5618 15.0881 70.5618 14.86V12.86C70.5631 12.7467 70.5418 12.6343 70.4991 12.5293C70.4563 12.4244 70.393 12.329 70.3129 12.2489C70.2328 12.1688 70.1374 12.1055 70.0325 12.0627C69.9275 12.02 69.8151 11.9987 69.7018 12Z" fill="#49A6D6"/>
    <path d="M74.0016 16H72.0016C71.7735 16 71.5548 16.0906 71.3935 16.2519C71.2322 16.4132 71.1416 16.6319 71.1416 16.86C71.1416 17.0881 71.2322 17.3068 71.3935 17.4681C71.5548 17.6294 71.7735 17.72 72.0016 17.72H74.0016C74.2297 17.72 74.4484 17.6294 74.6097 17.4681C74.771 17.3068 74.8616 17.0881 74.8616 16.86C74.8616 16.6319 74.771 16.4132 74.6097 16.2519C74.4484 16.0906 74.2297 16 74.0016 16Z" fill="#49A6D6"/>
    <path d="M196.002 9H215.652C215.88 9 216.098 8.90939 216.26 8.74811C216.421 8.58683 216.512 8.36809 216.512 8.14C216.512 7.91191 216.421 7.69317 216.26 7.53189C216.098 7.37061 215.88 7.28 215.652 7.28H196.002C195.774 7.28 195.555 7.37061 195.393 7.53189C195.232 7.69317 195.142 7.91191 195.142 8.14C195.142 8.36809 195.232 8.58683 195.393 8.74811C195.555 8.90939 195.774 9 196.002 9Z" fill="#49A6D6"/>
    <path d="M221.902 9H225.742C225.97 9 226.189 8.90939 226.35 8.74811C226.511 8.58683 226.602 8.36809 226.602 8.14C226.602 7.91191 226.511 7.69317 226.35 7.53189C226.189 7.37061 225.97 7.28 225.742 7.28H221.902C221.674 7.28 221.455 7.37061 221.294 7.53189C221.133 7.69317 221.042 7.91191 221.042 8.14C221.042 8.36809 221.133 8.58683 221.294 8.74811C221.455 8.90939 221.674 9 221.902 9Z" fill="#49A6D6"/>
    <path d="M205.232 2.19C205.235 1.96272 205.326 1.74548 205.487 1.58476C205.648 1.42404 205.865 1.3326 206.092 1.33H208.552C208.781 1.33 208.999 1.42061 209.161 1.58189C209.322 1.74317 209.412 1.96192 209.412 2.19C209.412 2.41809 209.322 2.63683 209.161 2.79811C208.999 2.95939 208.781 3.05 208.552 3.05H206.092C205.864 3.05 205.646 2.95939 205.484 2.79811C205.323 2.63683 205.232 2.41809 205.232 2.19ZM211.992 2.19C211.992 1.96192 212.083 1.74317 212.244 1.58189C212.406 1.42061 212.624 1.33 212.852 1.33H217.152C217.381 1.33 217.599 1.42061 217.761 1.58189C217.922 1.74317 218.012 1.96192 218.012 2.19C218.012 2.41809 217.922 2.63683 217.761 2.79811C217.599 2.95939 217.381 3.05 217.152 3.05H212.852C212.74 3.05001 212.629 3.0277 212.525 2.98436C212.421 2.94102 212.327 2.87751 212.248 2.79752C212.169 2.71753 212.106 2.62264 212.064 2.51835C212.022 2.41407 212.001 2.30246 212.002 2.19H211.992ZM220.582 2.19C220.585 1.96272 220.676 1.74548 220.837 1.58476C220.998 1.42404 221.215 1.3326 221.442 1.33H225.742C225.971 1.33 226.189 1.42061 226.351 1.58189C226.512 1.74317 226.602 1.96192 226.602 2.19C226.602 2.41809 226.512 2.63683 226.351 2.79811C226.189 2.95939 225.971 3.05 225.742 3.05H221.442C221.214 3.05 220.996 2.95939 220.834 2.79811C220.673 2.63683 220.582 2.41809 220.582 2.19Z" fill="#49A6D6"/>
    <path d="M27.442 65.85H47.092C47.3201 65.85 47.5389 65.7594 47.7001 65.5981C47.8614 65.4368 47.952 65.2181 47.952 64.99C47.952 64.7619 47.8614 64.5432 47.7001 64.3819C47.5389 64.2206 47.3201 64.13 47.092 64.13H27.442C27.2139 64.13 26.9952 64.2206 26.8339 64.3819C26.6726 64.5432 26.582 64.7619 26.582 64.99C26.582 65.2181 26.6726 65.4368 26.8339 65.5981C26.9952 65.7594 27.2139 65.85 27.442 65.85Z" fill="#49A6D6"/>
    <path d="M17.352 65.85H21.192C21.3121 65.863 21.4335 65.8506 21.5484 65.8135C21.6634 65.7765 21.7692 65.7157 21.8591 65.635C21.9489 65.5544 22.0208 65.4557 22.07 65.3454C22.1192 65.2352 22.1446 65.1158 22.1446 64.995C22.1446 64.8743 22.1192 64.7549 22.07 64.6446C22.0208 64.5343 21.9489 64.4357 21.8591 64.355C21.7692 64.2743 21.6634 64.2135 21.5484 64.1765C21.4335 64.1394 21.3121 64.127 21.192 64.14H17.352C17.232 64.127 17.1105 64.1394 16.9956 64.1765C16.8807 64.2135 16.7748 64.2743 16.685 64.355C16.5951 64.4357 16.5232 64.5343 16.474 64.6446C16.4248 64.7549 16.3994 64.8743 16.3994 64.995C16.3994 65.1158 16.4248 65.2352 16.474 65.3454C16.5232 65.4557 16.5951 65.5544 16.685 65.635C16.7748 65.7157 16.8807 65.7765 16.9956 65.8135C17.1105 65.8506 17.232 65.863 17.352 65.85Z" fill="#49A6D6"/>
    <path d="M175.092 0C175.092 0 175.502 2.92 172.092 2.85C172.092 2.85 175.022 2.85 174.942 5.62C175.092 4.92661 175.458 4.29892 175.989 3.82786C176.519 3.3568 177.186 3.06684 177.892 3C177.892 3 175.622 3.5 175.092 0Z" fill="#49A6D6"/>
    <path d="M12.292 104.87C12.292 104.87 12.702 107.79 9.29199 107.72C9.29199 107.72 12.222 107.72 12.142 110.49C12.2865 109.792 12.6511 109.159 13.1821 108.684C13.7131 108.209 14.3825 107.917 15.092 107.85C15.092 107.85 12.822 108.37 12.292 104.87Z" fill="#49A6D6"/>
    <path d="M39.5225 220C39.5205 219.43 39.6877 218.872 40.003 218.397C40.3182 217.922 40.7673 217.552 41.2934 217.332C41.8195 217.113 42.3989 217.054 42.9582 217.164C43.5175 217.274 44.0316 217.548 44.4354 217.95C44.8392 218.352 45.1144 218.866 45.2264 219.424C45.3383 219.983 45.2819 220.563 45.0642 221.09C44.8465 221.617 44.4774 222.067 44.0036 222.384C43.5297 222.701 42.9725 222.87 42.4025 222.87C41.6404 222.87 40.9094 222.568 40.3695 222.03C39.8297 221.492 39.5251 220.762 39.5225 220ZM41.0025 220C41.0045 220.286 41.0912 220.566 41.2517 220.803C41.4122 221.04 41.6394 221.224 41.9045 221.332C42.1696 221.441 42.4608 221.468 42.7414 221.411C43.022 221.354 43.2795 221.215 43.4813 221.012C43.6831 220.809 43.8202 220.55 43.8753 220.269C43.9304 219.988 43.9012 219.697 43.7911 219.433C43.6811 219.168 43.4952 218.943 43.257 218.784C43.0188 218.625 42.7388 218.54 42.4525 218.54C42.2612 218.54 42.0718 218.578 41.8953 218.651C41.7187 218.725 41.5584 218.833 41.4236 218.968C41.2888 219.104 41.1822 219.265 41.11 219.442C41.0377 219.619 41.0012 219.809 41.0025 220Z" fill="#49A6D6"/>
    <path d="M254.002 41.54H250.812C250.637 41.5607 250.476 41.645 250.359 41.7768C250.241 41.9086 250.177 42.0787 250.177 42.255C250.177 42.4313 250.241 42.6015 250.359 42.7332C250.476 42.865 250.637 42.9493 250.812 42.97H254.002C254.177 42.9493 254.338 42.865 254.456 42.7332C254.573 42.6015 254.637 42.4313 254.637 42.255C254.637 42.0787 254.573 41.9086 254.456 41.7768C254.338 41.645 254.177 41.5607 254.002 41.54Z" fill="#49A6D6"/>
    <path d="M275.462 41.54H259.162C259.061 41.528 258.959 41.5376 258.862 41.5681C258.765 41.5985 258.675 41.6492 258.599 41.7168C258.523 41.7843 258.462 41.8672 258.421 41.96C258.379 42.0528 258.357 42.1533 258.357 42.255C258.357 42.3567 258.379 42.4573 258.421 42.55C258.462 42.6428 258.523 42.7257 258.599 42.7932C258.675 42.8608 258.765 42.9115 258.862 42.9419C258.959 42.9724 259.061 42.982 259.162 42.97H275.462C275.563 42.982 275.666 42.9724 275.763 42.9419C275.86 42.9115 275.949 42.8608 276.025 42.7932C276.101 42.7257 276.162 42.6428 276.204 42.55C276.245 42.4573 276.267 42.3567 276.267 42.255C276.267 42.1533 276.245 42.0528 276.204 41.96C276.162 41.8672 276.101 41.7843 276.025 41.7168C275.949 41.6492 275.86 41.5985 275.763 41.5681C275.666 41.5376 275.563 41.528 275.462 41.54Z" fill="#49A6D6"/>
    <path d="M267.802 47.22C267.803 47.3141 267.786 47.4075 267.751 47.4948C267.716 47.5821 267.663 47.6615 267.597 47.7285C267.531 47.7955 267.453 47.8487 267.366 47.885C267.279 47.9213 267.186 47.94 267.092 47.94H265.092C264.917 47.9193 264.755 47.835 264.638 47.7032C264.521 47.5715 264.456 47.4013 264.456 47.225C264.456 47.0487 264.521 46.8786 264.638 46.7468C264.755 46.615 264.917 46.5307 265.092 46.51H267.092C267.28 46.51 267.461 46.5848 267.594 46.718C267.727 46.8511 267.802 47.0317 267.802 47.22ZM262.202 47.22C262.202 47.3146 262.183 47.4082 262.147 47.4955C262.111 47.5829 262.058 47.6623 261.991 47.7291C261.924 47.796 261.845 47.849 261.757 47.8852C261.67 47.9214 261.576 47.94 261.482 47.94H257.922C257.821 47.952 257.718 47.9424 257.621 47.9119C257.524 47.8815 257.435 47.8308 257.359 47.7632C257.283 47.6957 257.222 47.6128 257.18 47.52C257.139 47.4273 257.117 47.3267 257.117 47.225C257.117 47.1233 257.139 47.0228 257.18 46.93C257.222 46.8372 257.283 46.7543 257.359 46.6868C257.435 46.6192 257.524 46.5685 257.621 46.5381C257.718 46.5076 257.821 46.498 257.922 46.51H261.482C261.576 46.5087 261.669 46.5261 261.757 46.5612C261.844 46.5962 261.923 46.6483 261.99 46.7144C262.057 46.7805 262.111 46.8592 262.147 46.946C262.183 47.0328 262.202 47.1259 262.202 47.22ZM255.062 47.22C255.063 47.3141 255.046 47.4075 255.011 47.4948C254.976 47.5821 254.923 47.6615 254.857 47.7285C254.791 47.7955 254.713 47.8487 254.626 47.885C254.539 47.9213 254.446 47.94 254.352 47.94H250.782C250.607 47.9193 250.445 47.835 250.328 47.7032C250.211 47.5715 250.146 47.4013 250.146 47.225C250.146 47.0487 250.211 46.8786 250.328 46.7468C250.445 46.615 250.607 46.5307 250.782 46.51H254.352C254.54 46.51 254.721 46.5848 254.854 46.718C254.987 46.8511 255.062 47.0317 255.062 47.22Z" fill="#49A6D6"/>
    <path d="M146.072 151C145.884 151 145.703 151.075 145.57 151.208C145.437 151.341 145.362 151.522 145.362 151.71V153.37C145.383 153.545 145.467 153.706 145.599 153.824C145.731 153.941 145.901 154.005 146.077 154.005C146.254 154.005 146.424 153.941 146.556 153.824C146.687 153.706 146.772 153.545 146.792 153.37V151.71C146.792 151.616 146.774 151.523 146.737 151.436C146.701 151.349 146.648 151.27 146.581 151.204C146.514 151.138 146.434 151.086 146.347 151.051C146.26 151.016 146.166 150.999 146.072 151Z" fill="#49A6D6"/>
    <path d="M144.212 149.31H142.552C142.377 149.331 142.216 149.415 142.099 149.547C141.982 149.679 141.917 149.849 141.917 150.025C141.917 150.201 141.982 150.371 142.099 150.503C142.216 150.635 142.377 150.719 142.552 150.74H144.212C144.387 150.719 144.549 150.635 144.666 150.503C144.783 150.371 144.848 150.201 144.848 150.025C144.848 149.849 144.783 149.679 144.666 149.547C144.549 149.415 144.387 149.331 144.212 149.31Z" fill="#49A6D6"/>
    <path d="M146.072 145.88C145.979 145.88 145.887 145.898 145.801 145.934C145.714 145.97 145.636 146.022 145.57 146.088C145.504 146.154 145.452 146.232 145.416 146.318C145.381 146.404 145.362 146.497 145.362 146.59V148.25C145.383 148.425 145.467 148.586 145.599 148.704C145.731 148.821 145.901 148.885 146.077 148.885C146.254 148.885 146.424 148.821 146.556 148.704C146.687 148.586 146.772 148.425 146.792 148.25V146.59C146.792 146.496 146.774 146.403 146.737 146.316C146.701 146.229 146.648 146.15 146.581 146.084C146.514 146.018 146.434 145.966 146.347 145.931C146.26 145.896 146.166 145.879 146.072 145.88Z" fill="#49A6D6"/>
    <path d="M149.592 149.19H147.942C147.767 149.211 147.606 149.295 147.488 149.427C147.371 149.559 147.307 149.729 147.307 149.905C147.307 150.081 147.371 150.251 147.488 150.383C147.606 150.515 147.767 150.599 147.942 150.62H149.592C149.693 150.632 149.795 150.622 149.892 150.592C149.989 150.561 150.079 150.511 150.155 150.443C150.231 150.376 150.292 150.293 150.333 150.2C150.375 150.107 150.397 150.007 150.397 149.905C150.397 149.803 150.375 149.703 150.333 149.61C150.292 149.517 150.231 149.434 150.155 149.367C150.079 149.299 149.989 149.249 149.892 149.218C149.795 149.188 149.693 149.178 149.592 149.19Z" fill="#49A6D6"/>
    <path d="M415.552 94.15C415.363 94.15 415.183 94.2248 415.05 94.358C414.917 94.4911 414.842 94.6717 414.842 94.86V96.52C414.842 96.7083 414.917 96.8889 415.05 97.022C415.183 97.1552 415.363 97.23 415.552 97.23C415.74 97.23 415.921 97.1552 416.054 97.022C416.187 96.8889 416.262 96.7083 416.262 96.52V94.86C416.262 94.6717 416.187 94.4911 416.054 94.358C415.921 94.2248 415.74 94.15 415.552 94.15Z" fill="#49A6D6"/>
    <path d="M413.682 92.49H412.002C411.827 92.5107 411.666 92.595 411.549 92.7268C411.432 92.8586 411.367 93.0287 411.367 93.205C411.367 93.3813 411.432 93.5515 411.549 93.6832C411.666 93.815 411.827 93.8993 412.002 93.92H413.652C413.753 93.932 413.856 93.9224 413.953 93.8919C414.05 93.8615 414.139 93.8108 414.215 93.7432C414.291 93.6757 414.352 93.5928 414.394 93.5C414.436 93.4073 414.457 93.3067 414.457 93.205C414.457 93.1033 414.436 93.0028 414.394 92.91C414.352 92.8172 414.291 92.7343 414.215 92.6668C414.139 92.5992 414.05 92.5485 413.953 92.5181C413.856 92.4876 413.753 92.478 413.652 92.49H413.682Z" fill="#49A6D6"/>
    <path d="M415.552 89.06C415.363 89.06 415.183 89.1348 415.05 89.268C414.917 89.4011 414.842 89.5817 414.842 89.77V91.43C414.842 91.6183 414.917 91.7989 415.05 91.932C415.183 92.0652 415.363 92.14 415.552 92.14C415.74 92.14 415.921 92.0652 416.054 91.932C416.187 91.7989 416.262 91.6183 416.262 91.43V89.77C416.262 89.5817 416.187 89.4011 416.054 89.268C415.921 89.1348 415.74 89.06 415.552 89.06Z" fill="#49A6D6"/>
    <path d="M419.072 92.38H417.422C417.234 92.38 417.053 92.4548 416.92 92.588C416.787 92.7211 416.712 92.9017 416.712 93.09C416.712 93.2783 416.787 93.4589 416.92 93.592C417.053 93.7252 417.234 93.8 417.422 93.8H419.072C419.26 93.8 419.441 93.7252 419.574 93.592C419.707 93.4589 419.782 93.2783 419.782 93.09C419.782 92.9017 419.707 92.7211 419.574 92.588C419.441 92.4548 419.26 92.38 419.072 92.38Z" fill="#49A6D6"/>
    <path d="M426.682 42.33H443.002C443.103 42.342 443.206 42.3324 443.303 42.3019C443.4 42.2715 443.489 42.2208 443.565 42.1532C443.641 42.0857 443.702 42.0028 443.744 41.91C443.785 41.8173 443.807 41.7167 443.807 41.615C443.807 41.5133 443.785 41.4128 443.744 41.32C443.702 41.2272 443.641 41.1443 443.565 41.0768C443.489 41.0092 443.4 40.9585 443.303 40.9281C443.206 40.8976 443.103 40.888 443.002 40.9H426.702C426.601 40.888 426.499 40.8976 426.402 40.9281C426.305 40.9585 426.215 41.0092 426.139 41.0768C426.063 41.1443 426.002 41.2272 425.961 41.32C425.919 41.4128 425.897 41.5133 425.897 41.615C425.897 41.7167 425.919 41.8173 425.961 41.91C426.002 42.0028 426.063 42.0857 426.139 42.1532C426.215 42.2208 426.305 42.2715 426.402 42.3019C426.499 42.3324 426.601 42.342 426.702 42.33H426.682Z" fill="#49A6D6"/>
    <path d="M418.302 42.33H421.492C421.667 42.3093 421.829 42.225 421.946 42.0932C422.063 41.9614 422.128 41.7913 422.128 41.615C422.128 41.4387 422.063 41.2685 421.946 41.1368C421.829 41.005 421.667 40.9207 421.492 40.9H418.302C418.127 40.9207 417.966 41.005 417.849 41.1368C417.732 41.2685 417.667 41.4387 417.667 41.615C417.667 41.7913 417.732 41.9614 417.849 42.0932C417.966 42.225 418.127 42.3093 418.302 42.33Z" fill="#49A6D6"/>
    <path d="M177.702 300.13C177.589 300.13 177.477 300.152 177.373 300.195C177.268 300.239 177.174 300.302 177.094 300.382C177.014 300.462 176.95 300.557 176.907 300.661C176.864 300.765 176.842 300.877 176.842 300.99V302.99C176.842 303.218 176.932 303.437 177.094 303.598C177.255 303.759 177.474 303.85 177.702 303.85C177.93 303.85 178.149 303.759 178.31 303.598C178.471 303.437 178.562 303.218 178.562 302.99V300.99C178.563 300.877 178.542 300.764 178.499 300.659C178.456 300.554 178.393 300.459 178.313 300.379C178.233 300.299 178.137 300.235 178.032 300.193C177.928 300.15 177.815 300.129 177.702 300.13Z" fill="#49A6D6"/>
    <path d="M175.452 298.13H173.452C173.224 298.13 173.005 298.221 172.844 298.382C172.682 298.543 172.592 298.762 172.592 298.99C172.592 299.218 172.682 299.437 172.844 299.598C173.005 299.759 173.224 299.85 173.452 299.85H175.452C175.68 299.85 175.899 299.759 176.06 299.598C176.221 299.437 176.312 299.218 176.312 298.99C176.312 298.762 176.221 298.543 176.06 298.382C175.899 298.221 175.68 298.13 175.452 298.13Z" fill="#49A6D6"/>
    <path d="M177.702 294C177.589 294 177.477 294.022 177.373 294.065C177.268 294.109 177.174 294.172 177.094 294.252C177.014 294.332 176.95 294.427 176.907 294.531C176.864 294.635 176.842 294.747 176.842 294.86V296.86C176.842 297.088 176.932 297.307 177.094 297.468C177.255 297.629 177.474 297.72 177.702 297.72C177.93 297.72 178.149 297.629 178.31 297.468C178.471 297.307 178.562 297.088 178.562 296.86V294.86C178.563 294.747 178.542 294.634 178.499 294.529C178.456 294.424 178.393 294.329 178.313 294.249C178.233 294.169 178.137 294.105 178.032 294.063C177.928 294.02 177.815 293.999 177.702 294Z" fill="#49A6D6"/>
    <path d="M182.002 298H180.002C179.774 298 179.555 298.091 179.393 298.252C179.232 298.413 179.142 298.632 179.142 298.86C179.142 299.088 179.232 299.307 179.393 299.468C179.555 299.629 179.774 299.72 180.002 299.72H182.002C182.23 299.72 182.448 299.629 182.61 299.468C182.771 299.307 182.862 299.088 182.862 298.86C182.862 298.632 182.771 298.413 182.61 298.252C182.448 298.091 182.23 298 182.002 298Z" fill="#49A6D6"/>
</svg>
