<svg width="30" height="30" viewBox="0 0 30 30" fill="none" xmlns="http://www.w3.org/2000/svg">
<path d="M23.8477 0H6.15234C2.75994 0 0 2.75994 0 6.15234V23.8477C0 27.2401 2.75994 30 6.15234 30H23.8477C27.2401 30 30 27.2401 30 23.8477V6.15234C30 2.75994 27.2401 0 23.8477 0ZM15.8603 5.93461C17.2001 4.16877 19.0627 4.16016 19.0627 4.16016C19.0627 4.16016 19.3397 5.82029 18.0087 7.41961C16.5876 9.12732 14.9722 8.84783 14.9722 8.84783C14.9722 8.84783 14.6689 7.5048 15.8603 5.93461ZM18.7974 24.5208C17.606 24.5208 16.6799 23.718 15.4246 23.718C14.1455 23.718 12.876 24.5508 12.0493 24.5508C9.6808 24.5508 6.68854 19.4236 6.68854 15.3022C6.68854 11.2473 9.22131 9.12018 11.597 9.12018C13.1413 9.12018 14.3398 10.0108 15.1427 10.0108C15.832 10.0108 17.1111 9.0634 18.7761 9.0634C21.6422 9.0634 22.7697 11.1028 22.7697 11.1028C22.7697 11.1028 20.5645 12.2303 20.5645 14.966C20.5645 18.0522 23.3116 19.1158 23.3116 19.1158C23.3116 19.1158 21.3912 24.5208 18.7974 24.5208Z" fill="black"/>
</svg>
