<svg width="30" height="30" viewBox="0 0 30 30" fill="none" xmlns="http://www.w3.org/2000/svg">
<g clipPath="url(#clip0)">
<path d="M6.64863 18.1254L5.60437 22.0237L1.78764 22.1045C0.646992 19.9888 0 17.5683 0 14.996C0 12.5087 0.604922 10.163 1.67719 8.09766H1.67801L5.07598 8.72062L6.56449 12.0982C6.25295 13.0065 6.08314 13.9815 6.08314 14.996C6.08326 16.0971 6.28271 17.1521 6.64863 18.1254Z" fill="#FBBB00"/>
<path d="M29.7382 12.1992C29.9105 13.1066 30.0003 14.0437 30.0003 15.0014C30.0003 16.0753 29.8874 17.1229 29.6723 18.1333C28.9421 21.5718 27.0341 24.5742 24.391 26.6989L24.3902 26.6981L20.1103 26.4797L19.5045 22.6984C21.2584 21.6698 22.629 20.0602 23.351 18.1333H15.3301V12.1992H23.468H29.7382Z" fill="#518EF8"/>
<path d="M24.3893 26.6962L24.3901 26.697C21.8196 28.7632 18.5541 29.9995 14.9995 29.9995C9.28711 29.9995 4.32064 26.8066 1.78711 22.108L6.64811 18.1289C7.91484 21.5096 11.1761 23.9163 14.9995 23.9163C16.6429 23.9163 18.1825 23.472 19.5036 22.6965L24.3893 26.6962Z" fill="#28B446"/>
<path d="M24.574 3.45328L19.7147 7.43156C18.3474 6.57691 16.7311 6.0832 14.9996 6.0832C11.0897 6.0832 7.7674 8.60021 6.56412 12.1022L1.67758 8.10164H1.67676C4.1732 3.28846 9.20231 0 14.9996 0C18.6391 0 21.9762 1.29645 24.574 3.45328Z" fill="#F14336"/>
</g>
<defs>
<clipPath id="clip0">
<rect width="30" height="30" fill="white"/>
</clipPath>
</defs>
</svg>
