<svg width="100" height="36" viewBox="0 0 100 36" fill="none" xmlns="http://www.w3.org/2000/svg">
    <path fill-rule="evenodd" clip-rule="evenodd" d="M22.7344 0L5.62485 2.7546C2.52064 2.7546 0 5.20841 0 8.24798V24.9576C0 27.9893 2.52064 30.451 5.62485 30.451H22.7344C25.8386 30.451 28.3593 27.9893 28.3593 24.9576V5.49337C28.3593 2.46173 25.8386 0 22.7344 0ZM21.7456 26.8415C19.7599 28.1793 17.3689 28.8442 14.5646 28.8442C10.5284 28.8442 6.80007 27.4273 3.37977 24.5856L7.03511 20.9761C9.2964 23.3508 11.9062 24.5302 14.8564 24.5302C15.9911 24.5302 17.0366 24.2927 17.993 23.8257C19.1926 23.2637 19.7923 22.4801 19.7923 21.4748C19.7923 20.0104 18.6982 19.0764 16.5098 18.6727L13.4867 18.1107C10.7877 17.612 8.78578 16.9709 7.48088 16.2031C5.53569 15.0316 4.55499 13.3614 4.55499 11.1926C4.55499 8.72291 5.58432 6.75194 7.63488 5.27965C9.45039 3.94193 11.6712 3.27703 14.3053 3.27703C17.6526 3.27703 20.9432 4.40103 24.1528 6.63321L21.1134 10.2902C18.917 8.48544 16.68 7.58307 14.4187 7.58307C13.3165 7.58307 12.3277 7.82054 11.4361 8.28755C10.3744 8.85747 9.83943 9.64111 9.83943 10.6385C9.83943 11.9445 10.9336 12.7915 13.1219 13.1952L18.5036 14.1925C22.8803 14.992 25.0687 17.145 25.0687 20.6595C25.0849 23.2875 23.9745 25.3455 21.7456 26.8415Z" fill="#0FD186"/>
    <path d="M51.3038 6.9418V28.1633H46.4975V25.2821H46.4165C45.6222 26.3665 44.5442 27.2293 43.1745 27.8784C41.8047 28.5274 40.4269 28.852 39.049 28.852C37.4281 28.852 35.9367 28.5433 34.567 27.9179C33.2054 27.2926 32.0301 26.414 31.0413 25.2821C29.2258 23.1607 28.3262 20.5882 28.3262 17.5644C28.3262 16.6146 28.4153 15.6885 28.6017 14.7861C28.7882 13.8837 29.0799 13.0447 29.4852 12.261C29.8904 11.4853 30.4335 10.7096 31.1224 9.93387C32.2166 8.69113 33.4404 7.76502 34.7858 7.16344C36.1313 6.56186 37.6064 6.26898 39.1949 6.26898C40.6862 6.26898 42.0641 6.57769 43.3204 7.20301C44.5766 7.82834 45.6303 8.73863 46.4894 9.93387V6.9418H51.3038ZM46.3273 17.5249C46.3273 16.6304 46.1733 15.7993 45.8653 15.0315C45.5573 14.2637 45.1359 13.5988 44.5847 13.0368C44.0336 12.4748 43.3771 12.0394 42.599 11.7149C41.8209 11.3982 40.978 11.2399 40.0784 11.2399C38.1818 11.2399 36.6257 11.8573 35.4099 13.0842C34.1942 14.3112 33.5863 15.8705 33.5863 17.7465C33.5863 19.4642 34.2185 20.9206 35.4748 22.1C36.7391 23.2874 38.2467 23.8731 40.0054 23.8731C41.2293 23.8731 42.3234 23.5961 43.296 23.042C44.2686 22.4879 45.0143 21.728 45.5411 20.7623C46.0598 19.8045 46.3273 18.7201 46.3273 17.5249Z" fill="#0089FF"/>
    <path d="M52.8516 35.2477V6.9418H57.6173V9.71223H57.7145C59.295 7.41673 61.6211 6.26898 64.6848 6.26898C66.322 6.26898 67.7728 6.53811 69.0372 7.08428C70.3097 7.62254 71.4849 8.50116 72.571 9.71223C73.1869 10.3217 73.73 11.0579 74.2001 11.9286C74.6701 12.7914 75.0186 13.7096 75.2456 14.6674C75.4644 15.6251 75.5779 16.5908 75.5779 17.5644C75.5779 19.0446 75.3185 20.4694 74.7917 21.823C74.2649 23.1845 73.5111 24.3955 72.5142 25.4562C71.5173 26.5248 70.3502 27.3559 68.9967 27.9496C67.6512 28.5512 66.2086 28.8441 64.6767 28.8441C61.9048 28.8441 59.7246 27.8467 58.1279 25.852H58.055V35.2398H52.8516V35.2477ZM64.1256 11.2399C62.926 11.2399 61.84 11.517 60.8755 12.079C59.9029 12.641 59.141 13.4088 58.5899 14.3745C58.0387 15.3481 57.7551 16.4088 57.7551 17.5565C57.7551 19.5117 58.4278 21.0868 59.7813 22.2663C60.3649 22.7649 61.0295 23.1607 61.7751 23.4457C62.5127 23.7306 63.234 23.8731 63.9392 23.8731C65.1387 23.8731 66.2329 23.5881 67.2217 23.0261C68.2105 22.4562 68.9805 21.6884 69.5397 20.7148C70.0908 19.7412 70.3745 18.6805 70.3745 17.5169C70.3745 16.4325 70.107 15.4035 69.564 14.4299C69.021 13.4563 68.2672 12.6806 67.3108 12.1027C66.3463 11.5328 65.2846 11.2399 64.1256 11.2399Z" fill="#0089FF"/>
    <path d="M88.6204 6.26898C90.2008 6.26898 91.6921 6.56186 93.0781 7.15552C94.464 7.74918 95.6798 8.56448 96.7253 9.61725C97.7709 10.6621 98.5814 11.8732 99.1487 13.2346C99.7161 14.5961 99.9997 16.0526 99.9997 17.5961C99.9997 19.1317 99.708 20.5723 99.1163 21.9338C98.5246 23.2953 97.6898 24.4984 96.5957 25.5591C95.5015 26.6198 94.2533 27.4351 92.8431 27.9971C91.4328 28.567 89.9496 28.8441 88.3853 28.8441C86.3267 28.8441 84.4139 28.3375 82.647 27.3243C80.8801 26.3111 79.4699 24.9338 78.4324 23.2003C77.3869 21.4668 76.8682 19.5987 76.8682 17.5882C76.8682 16.0051 77.1681 14.5249 77.7759 13.1476C78.3838 11.7703 79.2186 10.5671 80.2966 9.53809C81.3664 8.50908 82.6146 7.70961 84.033 7.12386C85.4594 6.56186 86.9832 6.26898 88.6204 6.26898ZM88.3853 11.2399C87.6073 11.2399 86.8049 11.4141 85.9863 11.7624C85.1676 12.1106 84.4706 12.5856 83.9114 13.1792C82.7118 14.3666 82.1121 15.8309 82.1121 17.5882C82.1121 18.6964 82.3876 19.7412 82.9469 20.7227C83.498 21.7043 84.2599 22.4721 85.2244 23.0341C86.1889 23.5961 87.2425 23.8731 88.3853 23.8731C89.593 23.8731 90.6871 23.5961 91.6516 23.042C92.6161 22.4879 93.378 21.728 93.9291 20.7544C94.4803 19.7808 94.7477 18.728 94.7477 17.5961C94.7477 16.4642 94.4722 15.4035 93.9048 14.422C93.3456 13.4404 92.5756 12.6647 91.5949 12.0948C90.6142 11.5249 89.5443 11.2399 88.3853 11.2399Z" fill="#0089FF"/>
</svg>
