<svg width="24" height="25" viewBox="0 0 24 25" fill="none" xmlns="http://www.w3.org/2000/svg">
<path d="M12 3.40332C7.0275 3.40332 3 7.43082 3 12.4033C3 14.3833 3.63 16.2058 4.71 17.6908L3.4725 20.9533L7.05 19.9183C8.4675 20.8633 10.1775 21.4033 12 21.4033C16.9725 21.4033 21 17.3758 21 12.4033C21 7.43082 16.9725 3.40332 12 3.40332ZM16.7925 16.1383L15.825 17.0833C14.8125 18.0958 12.135 16.9933 9.7725 14.6083C7.41 12.2458 6.3525 9.56832 7.2975 8.57832L8.265 7.61082C8.625 7.25082 9.2325 7.25082 9.615 7.61082L11.0325 9.02832C11.5275 9.52332 11.325 10.3783 10.6725 10.5808C10.2225 10.7383 9.9075 11.2333 10.065 11.6833C10.3125 12.7408 11.685 14.0458 12.6975 14.2933C13.1475 14.4058 13.665 14.1358 13.8 13.6858C14.0025 13.0333 14.8575 12.8308 15.3525 13.3258L16.77 14.7433C17.13 15.1258 17.13 15.7333 16.7925 16.1383Z" fill="#0FD186"/>
</svg>
